<svg xmlns="http://www.w3.org/2000/svg" version="1.1" xmlns:xlink="http://www.w3.org/1999/xlink" xmlns:svgjs="http://svgjs.dev/svgjs" width="1500" height="1500" viewBox="0 0 1500 1500"><rect width="1500" height="1500" fill="#000000"></rect><g transform="matrix(0.6666666666666666,0,0,0.6666666666666666,250.43243138179776,668.8428739946281)"><svg viewBox="0 0 396 64" data-background-color="#eae5df" preserveAspectRatio="xMidYMid meet" height="242" width="1500" xmlns="http://www.w3.org/2000/svg" xmlns:xlink="http://www.w3.org/1999/xlink"><g id="tight-bounds" transform="matrix(1,0,0,1,0.434760715514642,0.9922092352704794)"><svg viewBox="0 0 395.52 61.313388741151115" height="61.313388741151115" width="395.52"><g><svg viewBox="0 0 606.6420801245804 94.04146866256811" height="61.313388741151115" width="395.52"><g transform="matrix(1,0,0,1,211.1220801245804,12.997048129197182)"><svg viewBox="0 0 395.52 68.04737240417374" height="68.04737240417374" width="395.52"><g id="textblocktransform"><svg viewBox="0 0 395.52 68.04737240417374" height="68.04737240417374" width="395.52" id="textblock"><g><svg viewBox="0 0 395.52 41.587871377919065" height="41.587871377919065" width="395.52"><g transform="matrix(1,0,0,1,0,0)"><svg width="395.52" viewBox="3.7 -40.8 408.92 43" height="41.587871377919065" data-palette-color="#be959f"><path d="M6.55-11.55L8.15-3.45Q11.05-1.45 16.3-1.45L16.3-1.45Q19.85-1.45 21.63-3.5 23.4-5.55 23.4-8.4L23.4-8.4Q23.4-9.9 23.15-10.93 22.9-11.95 22.08-13.25 21.25-14.55 19.45-15.85 17.65-17.15 14.75-18.6L14.75-18.6Q11.35-20.3 9.25-21.8 7.15-23.3 6.1-24.9 5.05-26.5 4.7-27.95 4.35-29.4 4.35-31.55L4.35-31.55Q4.35-35.95 7.88-38.38 11.4-40.8 16.2-40.8L16.2-40.8Q22.15-40.8 27.7-37.8L27.7-37.8 27.7-28.2Q26-27.9 24.85-28.2L24.85-28.2 23.25-36.85Q20.05-38.6 16.1-38.6L16.1-38.6Q13.45-38.6 11.63-37.02 9.8-35.45 9.8-32.6L9.8-32.6Q9.8-31 10-30.1 10.2-29.2 11-27.98 11.8-26.75 13.65-25.53 15.5-24.3 18.6-22.8L18.6-22.8Q29.3-17.6 29.3-10.4L29.3-10.4Q29.3-5.3 25.4-2.15 21.5 1 15.2 1L15.2 1Q8.95 1 3.7-1.95L3.7-1.95 3.7-11.55Q5.4-11.85 6.55-11.55L6.55-11.55ZM70.5-24.3L60.35 2.2 59.3 2.2 52.7-16.15 45.85 2.2 44.8 2.2 35.2-24.25 32.05-24.85Q31.85-25.65 32.05-26.85L32.05-26.85Q34.8-26.65 38-26.65L38-26.65Q40.85-26.65 44.05-26.8L44.05-26.8Q44.35-25.8 44.05-24.85L44.05-24.85 40.2-24.25 44.2-12.9Q45.95-7.9 46.5-5.65L46.5-5.65 46.6-5.65Q47.8-9.95 48.95-12.65L48.95-12.65 51.5-19.5 49.8-24.25 46.65-24.85Q46.45-25.65 46.65-26.85L46.65-26.85Q49.4-26.65 52.6-26.65L52.6-26.65Q55.45-26.65 58.65-26.8L58.65-26.8Q58.95-25.8 58.65-24.85L58.65-24.85 54.8-24.25 58.65-12.9Q60.4-7.9 60.95-5.65L60.95-5.65 61.05-5.65Q62.25-9.95 63.4-12.65L63.4-12.65 67.75-24.45 63.85-24.85Q63.65-25.65 63.85-26.85L63.85-26.85Q66.6-26.65 69-26.65L69-26.65Q71.05-26.65 74.25-26.8L74.25-26.8Q74.55-25.8 74.25-24.85L74.25-24.85 70.5-24.3ZM96.5-14.1L96.5-14.1 80.8-14.1Q80.35-1.35 88.45-1.35L88.45-1.35Q91.9-1.35 95.5-4.4L95.5-4.4Q96.25-3.95 96.65-2.85L96.65-2.85Q93.2 1 87.9 1L87.9 1Q75.7 1 75.7-13.35L75.7-13.35Q75.7-20.15 79.3-23.93 82.9-27.7 87.7-27.7L87.7-27.7Q92.95-27.7 95.25-24.05 97.55-20.4 97.55-14.55L97.55-14.55Q97.05-14.15 96.5-14.1ZM87.6-25.7L87.6-25.7Q85-25.7 83.17-23 81.35-20.3 80.95-16.1L80.95-16.1 87.15-16.1Q90.85-16.1 92.45-16.55L92.45-16.55Q92.45-20.65 91.2-23.18 89.95-25.7 87.6-25.7ZM122.74-14.1L122.74-14.1 107.04-14.1Q106.59-1.35 114.69-1.35L114.69-1.35Q118.14-1.35 121.74-4.4L121.74-4.4Q122.49-3.95 122.89-2.85L122.89-2.85Q119.44 1 114.14 1L114.14 1Q101.94 1 101.94-13.35L101.94-13.35Q101.94-20.15 105.54-23.93 109.14-27.7 113.94-27.7L113.94-27.7Q119.19-27.7 121.49-24.05 123.79-20.4 123.79-14.55L123.79-14.55Q123.29-14.15 122.74-14.1ZM113.84-25.7L113.84-25.7Q111.24-25.7 109.42-23 107.59-20.3 107.19-16.1L107.19-16.1 113.39-16.1Q117.09-16.1 118.69-16.55L118.69-16.55Q118.69-20.65 117.44-23.18 116.19-25.7 113.84-25.7ZM135.44-32.7L135.44-32.7 135.44-25.55 142.49-25.55Q142.59-24.95 142.59-24.65L142.59-24.65Q142.59-24.2 142.49-23.6L142.49-23.6 135.44-22.55 135.44-8.8Q135.44-5.1 136.12-3.58 136.79-2.05 138.24-2.05L138.24-2.05Q139.54-2.05 142.29-3.1L142.29-3.1Q142.79-2.65 142.99-1.4L142.99-1.4Q141.49-0.5 140.72-0.08 139.94 0.35 138.77 0.68 137.59 1 136.29 1L136.29 1Q133.79 1 132.22-0.93 130.64-2.85 130.64-6.8L130.64-6.8 130.64-23.15 127.14-23.6Q127.04-24.1 127.04-24.45L127.04-24.45Q127.04-24.85 127.14-25.55L127.14-25.55Q128.54-25.8 129.56-26.43 130.59-27.05 131.29-28.18 131.99-29.3 132.37-30.18 132.74-31.05 133.29-32.7L133.29-32.7Q133.74-32.85 134.39-32.85L134.39-32.85Q134.99-32.85 135.44-32.7ZM150.29-11.55L151.89-3.45Q154.79-1.45 160.04-1.45L160.04-1.45Q163.59-1.45 165.36-3.5 167.14-5.55 167.14-8.4L167.14-8.4Q167.14-9.9 166.89-10.93 166.64-11.95 165.81-13.25 164.99-14.55 163.19-15.85 161.39-17.15 158.49-18.6L158.49-18.6Q155.09-20.3 152.99-21.8 150.89-23.3 149.84-24.9 148.79-26.5 148.44-27.95 148.09-29.4 148.09-31.55L148.09-31.55Q148.09-35.95 151.61-38.38 155.14-40.8 159.94-40.8L159.94-40.8Q165.89-40.8 171.44-37.8L171.44-37.8 171.44-28.2Q169.74-27.9 168.59-28.2L168.59-28.2 166.99-36.85Q163.79-38.6 159.84-38.6L159.84-38.6Q157.19-38.6 155.36-37.02 153.54-35.45 153.54-32.6L153.54-32.6Q153.54-31 153.74-30.1 153.94-29.2 154.74-27.98 155.54-26.75 157.39-25.53 159.24-24.3 162.34-22.8L162.34-22.8Q173.04-17.6 173.04-10.4L173.04-10.4Q173.04-5.3 169.14-2.15 165.24 1 158.94 1L158.94 1Q152.69 1 147.44-1.95L147.44-1.95 147.44-11.55Q149.14-11.85 150.29-11.55L150.29-11.55ZM199.44-14.1L199.44-14.1 183.74-14.1Q183.29-1.35 191.39-1.35L191.39-1.35Q194.84-1.35 198.44-4.4L198.44-4.4Q199.19-3.95 199.59-2.85L199.59-2.85Q196.14 1 190.84 1L190.84 1Q178.64 1 178.64-13.35L178.64-13.35Q178.64-20.15 182.24-23.93 185.84-27.7 190.64-27.7L190.64-27.7Q195.89-27.7 198.19-24.05 200.49-20.4 200.49-14.55L200.49-14.55Q199.99-14.15 199.44-14.1ZM190.54-25.7L190.54-25.7Q187.94-25.7 186.11-23 184.29-20.3 183.89-16.1L183.89-16.1 190.09-16.1Q193.79-16.1 195.39-16.55L195.39-16.55Q195.39-20.65 194.14-23.18 192.89-25.7 190.54-25.7ZM224.93-8.7L224.93-17.85Q224.93-21.7 223.91-23.25 222.88-24.8 220.48-24.8L220.48-24.8Q216.78-24.8 213.03-19.25L213.03-19.25 213.03-2.55 217.08-1.8Q217.28-1 217.08 0.2L217.08 0.2Q213.93 0.05 210.63 0.05L210.63 0.05Q208.33 0.05 204.13 0.15L204.13 0.15Q203.83-0.8 204.13-1.8L204.13-1.8 208.08-2.35Q208.28-5.1 208.28-8.7L208.28-8.7 208.28-22.4Q208.28-23.4 208.13-24.25L208.13-24.25 204.18-24.75Q203.98-25.5 204.18-26.65L204.18-26.65Q207.63-26.9 212.78-27.7L212.78-27.7Q213.23-27.2 213.28-26.7L213.28-26.7Q213.03-25.4 213.03-22.25L213.03-22.25Q216.98-27.7 221.93-27.7L221.93-27.7Q229.68-27.7 229.68-20.35L229.68-20.35 229.68-2.55 233.73-1.8Q233.93-1 233.73 0.2L233.73 0.2Q230.58 0.05 227.28 0.05L227.28 0.05Q224.98 0.05 220.78 0.15L220.78 0.15Q220.48-0.8 220.78-1.8L220.78-1.8 224.73-2.35Q224.93-5.1 224.93-8.7L224.93-8.7ZM243.98-32.7L243.98-32.7 243.98-25.55 251.03-25.55Q251.13-24.95 251.13-24.65L251.13-24.65Q251.13-24.2 251.03-23.6L251.03-23.6 243.98-22.55 243.98-8.8Q243.98-5.1 244.66-3.58 245.33-2.05 246.78-2.05L246.78-2.05Q248.08-2.05 250.83-3.1L250.83-3.1Q251.33-2.65 251.53-1.4L251.53-1.4Q250.03-0.5 249.26-0.08 248.48 0.35 247.31 0.68 246.13 1 244.83 1L244.83 1Q242.33 1 240.76-0.93 239.18-2.85 239.18-6.8L239.18-6.8 239.18-23.15 235.68-23.6Q235.58-24.1 235.58-24.45L235.58-24.45Q235.58-24.85 235.68-25.55L235.68-25.55Q237.08-25.8 238.11-26.43 239.13-27.05 239.83-28.18 240.53-29.3 240.91-30.18 241.28-31.05 241.83-32.7L241.83-32.7Q242.28-32.85 242.93-32.85L242.93-32.85Q243.53-32.85 243.98-32.7ZM262.68-18.6L262.68-18.6 262.68-2.55 266.73-1.8Q266.78-1.55 266.8-1.35 266.83-1.15 266.83-0.9L266.83-0.9Q266.83-0.65 266.8-0.38 266.78-0.1 266.73 0.2L266.73 0.2Q263.58 0.05 260.28 0.05L260.28 0.05Q259.13 0.05 257.5 0.08 255.88 0.1 253.78 0.15L253.78 0.15Q253.63-0.3 253.63-0.8L253.63-0.8Q253.63-1.25 253.78-1.8L253.78-1.8 257.73-2.35Q257.83-3.75 257.88-5.33 257.93-6.9 257.93-8.7L257.93-8.7 257.93-19.35Q257.93-22.65 257.78-24.25L257.78-24.25 253.83-24.75Q253.73-25 253.73-25.6L253.73-25.6Q253.73-25.85 253.73-26.1 253.73-26.35 253.83-26.65L253.83-26.65Q257.23-26.85 262.43-27.7L262.43-27.7Q262.88-27.2 262.93-26.7L262.93-26.7Q262.68-25.3 262.68-18.6ZM255.38-36.45L255.38-36.45Q255.28-36.7 255.28-36.98 255.28-37.25 255.28-37.5L255.28-37.5Q255.28-38.85 256.4-39.68 257.53-40.5 259.18-40.5L259.18-40.5Q260.73-40.5 261.7-39.58 262.68-38.65 262.68-37.05L262.68-37.05Q262.68-35.75 261.55-34.95 260.43-34.15 258.68-34.15L258.68-34.15Q257.48-34.15 256.55-34.75 255.63-35.35 255.38-36.45ZM306.38-8.7L306.38-17.85Q306.38-24.8 301.93-24.8L301.93-24.8Q298.13-24.8 294.73-19.55L294.73-19.55 294.73-2.55 298.78-1.8Q298.98-1 298.78 0.2L298.78 0.2Q295.63 0.05 292.38 0.05L292.38 0.05Q290.08 0.05 285.88 0.15L285.88 0.15Q285.58-0.8 285.88-1.8L285.88-1.8 289.83-2.35Q290.03-5.1 290.03-8.7L290.03-8.7 290.03-17.85Q290.03-24.8 285.58-24.8L285.58-24.8Q283.33-24.8 281.63-23.43 279.93-22.05 278.13-19.15L278.13-19.15 278.13-2.55 282.18-1.8Q282.38-1 282.18 0.2L282.18 0.2Q279.03 0.05 275.78 0.05L275.78 0.05Q273.48 0.05 269.28 0.15L269.28 0.15Q268.98-0.8 269.28-1.8L269.28-1.8 273.23-2.35Q273.43-5.1 273.43-8.7L273.43-8.7 273.43-22.4Q273.43-23.4 273.28-24.25L273.28-24.25 269.33-24.75Q269.13-25.5 269.33-26.65L269.33-26.65Q272.68-26.9 277.88-27.7L277.88-27.7Q278.33-27.2 278.38-26.7L278.38-26.7Q278.13-25.4 278.13-22.25L278.13-22.25Q282.08-27.7 287.03-27.7L287.03-27.7Q289.63-27.7 291.78-26.38 293.93-25.05 294.53-22.3L294.53-22.3Q298.53-27.7 303.38-27.7L303.38-27.7Q306.43-27.7 308.75-25.9 311.08-24.1 311.08-20.35L311.08-20.35 311.08-2.55 315.13-1.8Q315.33-1 315.13 0.2L315.13 0.2Q311.98 0.05 308.73 0.05L308.73 0.05Q306.43 0.05 302.23 0.15L302.23 0.15Q301.93-0.8 302.23-1.8L302.23-1.8 306.18-2.35Q306.38-5.1 306.38-8.7L306.38-8.7ZM338.87-14.1L338.87-14.1 323.17-14.1Q322.72-1.35 330.82-1.35L330.82-1.35Q334.27-1.35 337.87-4.4L337.87-4.4Q338.62-3.95 339.02-2.85L339.02-2.85Q335.57 1 330.27 1L330.27 1Q318.07 1 318.07-13.35L318.07-13.35Q318.07-20.15 321.67-23.93 325.27-27.7 330.07-27.7L330.07-27.7Q335.32-27.7 337.62-24.05 339.92-20.4 339.92-14.55L339.92-14.55Q339.42-14.15 338.87-14.1ZM329.97-25.7L329.97-25.7Q327.37-25.7 325.55-23 323.72-20.3 323.32-16.1L323.32-16.1 329.52-16.1Q333.22-16.1 334.82-16.55L334.82-16.55Q334.82-20.65 333.57-23.18 332.32-25.7 329.97-25.7ZM364.37-8.7L364.37-17.85Q364.37-21.7 363.35-23.25 362.32-24.8 359.92-24.8L359.92-24.8Q356.22-24.8 352.47-19.25L352.47-19.25 352.47-2.55 356.52-1.8Q356.72-1 356.52 0.2L356.52 0.2Q353.37 0.05 350.07 0.05L350.07 0.05Q347.77 0.05 343.57 0.15L343.57 0.15Q343.27-0.8 343.57-1.8L343.57-1.8 347.52-2.35Q347.72-5.1 347.72-8.7L347.72-8.7 347.72-22.4Q347.72-23.4 347.57-24.25L347.57-24.25 343.62-24.75Q343.42-25.5 343.62-26.65L343.62-26.65Q347.07-26.9 352.22-27.7L352.22-27.7Q352.67-27.2 352.72-26.7L352.72-26.7Q352.47-25.4 352.47-22.25L352.47-22.25Q356.42-27.7 361.37-27.7L361.37-27.7Q369.12-27.7 369.12-20.35L369.12-20.35 369.12-2.55 373.17-1.8Q373.37-1 373.17 0.2L373.17 0.2Q370.02 0.05 366.72 0.05L366.72 0.05Q364.42 0.05 360.22 0.15L360.22 0.15Q359.92-0.8 360.22-1.8L360.22-1.8 364.17-2.35Q364.37-5.1 364.37-8.7L364.37-8.7ZM383.42-32.7L383.42-32.7 383.42-25.55 390.47-25.55Q390.57-24.95 390.57-24.65L390.57-24.65Q390.57-24.2 390.47-23.6L390.47-23.6 383.42-22.55 383.42-8.8Q383.42-5.1 384.09-3.58 384.77-2.05 386.22-2.05L386.22-2.05Q387.52-2.05 390.27-3.1L390.27-3.1Q390.77-2.65 390.97-1.4L390.97-1.4Q389.47-0.5 388.69-0.08 387.92 0.35 386.74 0.68 385.57 1 384.27 1L384.27 1Q381.77 1 380.19-0.93 378.62-2.85 378.62-6.8L378.62-6.8 378.62-23.15 375.12-23.6Q375.02-24.1 375.02-24.45L375.02-24.45Q375.02-24.85 375.12-25.55L375.12-25.55Q376.52-25.8 377.54-26.43 378.57-27.05 379.27-28.18 379.97-29.3 380.34-30.18 380.72-31.05 381.27-32.7L381.27-32.7Q381.72-32.85 382.37-32.85L382.37-32.85Q382.97-32.85 383.42-32.7ZM402.82-1.2L402.82-1.2Q405.52-1.2 406.82-2.45 408.12-3.7 408.12-5.35L408.12-5.35Q408.12-6.3 407.82-7.1 407.52-7.9 406.84-8.65 406.17-9.4 405.07-10.13 403.97-10.85 402.32-11.7L402.32-11.7Q400.27-12.75 398.79-13.7 397.32-14.65 396.37-15.7 395.42-16.75 394.94-17.95 394.47-19.15 394.47-20.65L394.47-20.65Q394.47-22.45 395.12-23.78 395.77-25.1 396.94-25.98 398.12-26.85 399.72-27.28 401.32-27.7 403.27-27.7L403.27-27.7Q407.17-27.7 410.87-25.8L410.87-25.8 410.87-19.4 408.52-19.4 407.42-24.8Q405.22-25.85 402.77-25.85L402.77-25.85Q398.67-25.85 398.67-22.5L398.67-22.5Q398.67-20.7 400.02-19.2 401.37-17.7 404.37-16.2L404.37-16.2Q406.42-15.15 407.97-14.2 409.52-13.25 410.54-12.2 411.57-11.15 412.09-9.93 412.62-8.7 412.62-7.15L412.62-7.15Q412.62-5.4 411.87-3.9 411.12-2.4 409.77-1.33 408.42-0.25 406.52 0.38 404.62 1 402.32 1L402.32 1Q397.87 1 393.97-0.9L393.97-0.9 393.97-7.3 396.32-7.3 397.42-2.35Q399.97-1.2 402.82-1.2Z" opacity="1" transform="matrix(1,0,0,1,0,0)" fill="#ffffff" class="wordmark-text-0" data-fill-palette-color="primary" id="text-0"></path></svg></g></svg></g><g transform="matrix(1,0,0,1,0,51.40576970133269)"><svg viewBox="0 0 232.209792 16.641602702841055" height="16.641602702841055" width="232.209792"><g transform="matrix(1,0,0,1,0,0)"><svg width="232.209792" viewBox="2.93 -31.74 572.25 41.019999999999996" height="16.641602702841055" data-palette-color="#be959f"><path d="M23.73-7.67L23.73-7.67Q23.73-12.01 19.04-14.65L19.04-14.65Q18.12-15.14 13.33-17.24L13.33-17.24Q8.98-19.09 7.86-21.04L7.86-21.04Q7.28-22.12 7.28-23.34L7.28-23.34Q7.28-26.61 10.45-27.88L10.45-27.88Q11.82-28.42 13.48-28.42L13.48-28.42Q17.58-28.42 19.73-25.63L19.73-25.63Q21.14-23.73 21.09-21L21.09-21 22.56-21 22.56-29.54Q21.39-29.54 21.19-28.81L21.19-28.81Q21.09-28.47 21.09-27.88L21.09-27.88Q17.63-29.79 13.28-29.79L13.28-29.79Q8.01-29.79 5.08-26.86L5.08-26.86Q3.13-24.8 3.13-22.07L3.13-22.07Q3.13-17.97 7.71-15.38L7.71-15.38Q8.54-14.94 13.28-12.89L13.28-12.89Q17.68-10.94 18.85-8.94L18.85-8.94Q19.48-7.81 19.48-6.49L19.48-6.49Q19.48-3.08 16.16-1.56L16.16-1.56Q14.6-0.88 12.7-0.88L12.7-0.88Q5.22-0.98 4.39-10.01L4.39-10.01 2.93-10.01 2.93 0.1Q4.1 0.1 4.3-0.59L4.3-0.59Q4.39-0.98 4.39-2L4.39-2Q8.15 0.49 12.94 0.49L12.94 0.49Q18.55 0.49 21.63-2.54L21.63-2.54Q23.73-4.69 23.73-7.67ZM37.5-1.22L37.5-1.22 35.06-1.22 35.06-11.77Q35.06-16.21 38.13-18.21L38.13-18.21Q39.4-19.04 40.77-19.04L40.77-19.04Q43.75-19.04 44.92-16.26L44.92-16.26Q45.46-14.94 45.46-13.33L45.46-13.33 45.46-4.15Q45.46-1.9 44.38-1.46L44.38-1.46Q43.7-1.22 42.04-1.22L42.04-1.22 42.04 0 52.78 0Q52.78-1.07 52.05-1.17L52.05-1.17Q51.85-1.22 51.56-1.22L51.56-1.22 49.12-1.22 49.12-13.33Q49.12-18.65 45.6-20.56L45.6-20.56Q44.24-21.24 42.67-21.24L42.67-21.24Q39.06-21.24 36.62-18.6L36.62-18.6Q35.59-17.48 35.06-16.06L35.06-16.06 35.06-31.74 27.73-31.74 27.73-30.52 31.39-30.52 31.39-4.15Q31.39-1.9 30.12-1.46L30.12-1.46Q29.39-1.22 27.73-1.22L27.73-1.22 27.73 0 38.72 0Q38.72-1.07 37.99-1.17L37.99-1.17Q37.79-1.22 37.5-1.22ZM60.15-10.4L60.15-10.4Q60.15-17.97 64.3-19.63L64.3-19.63Q65.38-20.02 66.55-20.02L66.55-20.02Q71.97-20.02 72.85-13.18L72.85-13.18Q72.99-12.01 72.99-10.6L72.99-10.6Q72.99-2.39 68.5-0.98L68.5-0.98Q67.62-0.73 66.69-0.73L66.69-0.73Q61.76-0.73 60.49-6.59L60.49-6.59Q60.15-8.3 60.15-10.4ZM66.69-21.24L66.69-21.24Q62.01-21.24 58.88-18.02L58.88-18.02Q56-15.04 56-10.6L56-10.6Q56-4.44 60.49-1.37L60.49-1.37Q63.23 0.49 66.55 0.49L66.55 0.49Q71.24 0.49 74.31-2.83L74.31-2.83Q77.14-5.86 77.14-10.4L77.14-10.4Q77.14-16.55 72.6-19.53L72.6-19.53Q69.92-21.24 66.69-21.24ZM85.39-19.53L89.06-19.53 89.06-20.75 79.39-20.75 79.39-19.53 81.58-19.53 87.69-3.17Q88.71-0.39 89.79 0.05L89.79 0.05Q90.32 0.24 91.11 0.24L91.11 0.24 92.08 0.24 96.33-12.55 99.6-3.17Q100.53-0.44 101.51 0.05L101.51 0.05Q101.99 0.24 102.82 0.24L102.82 0.24 103.61 0.24 109.51-17.77Q110-19.29 110.69-19.48L110.69-19.48Q110.93-19.53 111.22-19.53L111.22-19.53Q112.3-19.53 112.44-20.21L112.44-20.21Q112.49-20.46 112.49-20.75L112.49-20.75 105.27-20.75 105.27-19.53 108.68-19.53 103.26-2.69 97.55-19.53 100.97-19.53 100.97-20.75 93.45-20.75 95.65-14.55 91.59-2.54 85.39-19.53ZM127.04 7.76L127.04 7.76Q126.26 7.76 125.87 6.59L125.87 6.59Q125.33 5.13 124.84 4.79L124.84 4.79Q124.4 4.49 123.82 4.49L123.82 4.49Q122.25 4.49 122.01 5.86L122.01 5.86Q121.96 6.05 121.96 6.2L121.96 6.2Q121.96 8.06 124.11 8.89L124.11 8.89Q125.09 9.28 126.16 9.28L126.16 9.28Q130.02 9.28 132.85 4.54L132.85 4.54Q134.02 2.64 135.09 0L135.09 0 142.32-17.82Q142.81-19.19 143.4-19.38L143.4-19.38Q143.74-19.48 144.18-19.48L144.18-19.48Q145.15-19.48 145.3-20.02L145.3-20.02Q145.4-20.31 145.4-20.75L145.4-20.75 137.98-20.75 137.98-19.48 141.54-19.48 135.29-3.86 128.6-19.48 131.87-19.48 131.87-20.75 122.35-20.75 122.35-19.48 124.74-19.48 133.53 0Q130.8 6.45 128.41 7.47L128.41 7.47Q127.72 7.76 127.04 7.76ZM151.74-10.4L151.74-10.4Q151.74-17.97 155.89-19.63L155.89-19.63Q156.97-20.02 158.14-20.02L158.14-20.02Q163.56-20.02 164.44-13.18L164.44-13.18Q164.58-12.01 164.58-10.6L164.58-10.6Q164.58-2.39 160.09-0.98L160.09-0.98Q159.21-0.73 158.29-0.73L158.29-0.73Q153.35-0.73 152.08-6.59L152.08-6.59Q151.74-8.3 151.74-10.4ZM158.29-21.24L158.29-21.24Q153.6-21.24 150.47-18.02L150.47-18.02Q147.59-15.04 147.59-10.6L147.59-10.6Q147.59-4.44 152.08-1.37L152.08-1.37Q154.82 0.49 158.14 0.49L158.14 0.49Q162.83 0.49 165.9-2.83L165.9-2.83Q168.74-5.86 168.74-10.4L168.74-10.4Q168.74-16.55 164.19-19.53L164.19-19.53Q161.51-21.24 158.29-21.24ZM195.83-1.22L195.83-1.22 193.39-1.22 193.39-20.75 185.72-20.75 185.72-19.53 189.73-19.53 189.73-8.98Q189.73-4.59 186.65-2.54L186.65-2.54Q185.29-1.61 183.82-1.61L183.82-1.61Q179.82-1.61 179.18-5.71L179.18-5.71Q179.08-6.4 179.08-7.18L179.08-7.18 179.08-20.75 171.66-20.75 171.66-19.53 175.42-19.53 175.42-7.91Q175.47 0.44 182.4 0.49L182.4 0.49Q186.07 0.49 188.41-2.49L188.41-2.49Q189.29-3.61 189.83-4.98L189.83-4.98 190.17 0 197.05 0Q197.05-1.07 196.32-1.17L196.32-1.17Q196.13-1.22 195.83-1.22ZM210.77-1.22L210.77-1.22 207.26-1.22 207.26-10.94Q207.26-15.38 209.99-18.07L209.99-18.07Q211.06-19.09 211.8-19.14L211.8-19.14Q212.63-19.14 213.31-17.92L213.31-17.92Q214.09-16.55 214.77-16.36L214.77-16.36Q215.07-16.26 215.36-16.26L215.36-16.26Q216.83-16.26 217.22-17.68L217.22-17.68Q217.31-17.97 217.31-18.26L217.31-18.26Q217.31-20.46 215.07-20.95L215.07-20.95Q214.58-21.04 214.14-21.04L214.14-21.04Q211.21-21.04 208.92-18.55L208.92-18.55Q207.84-17.38 207.21-15.92L207.21-15.92 207.01-20.75 199.93-20.75 199.93-19.53 203.59-19.53 203.59-4.15Q203.59-1.9 202.32-1.46L202.32-1.46Q201.59-1.22 199.93-1.22L199.93-1.22 199.93 0 211.99 0Q211.99-1.07 211.26-1.17L211.26-1.17Q211.06-1.22 210.77-1.22ZM229.03 0L250.41 0 250.66-9.77 249.68-9.77 248.85-6.49Q247.68-2 244.95-1.37L244.95-1.37Q244.36-1.27 243.82-1.27L243.82-1.27 237.13-1.27 237.13-28.03 241.23-28.03 241.23-29.3 229.03-29.3 229.03-28.03 232.93-28.03 232.93-1.27 229.03-1.27 229.03 0ZM257.25-10.4L257.25-10.4Q257.25-17.97 261.4-19.63L261.4-19.63Q262.47-20.02 263.64-20.02L263.64-20.02Q269.06-20.02 269.94-13.18L269.94-13.18Q270.09-12.01 270.09-10.6L270.09-10.6Q270.09-2.39 265.6-0.98L265.6-0.98Q264.72-0.73 263.79-0.73L263.79-0.73Q258.86-0.73 257.59-6.59L257.59-6.59Q257.25-8.3 257.25-10.4ZM263.79-21.24L263.79-21.24Q259.1-21.24 255.98-18.02L255.98-18.02Q253.1-15.04 253.1-10.6L253.1-10.6Q253.1-4.44 257.59-1.37L257.59-1.37Q260.32 0.49 263.64 0.49L263.64 0.49Q268.33 0.49 271.41-2.83L271.41-2.83Q274.24-5.86 274.24-10.4L274.24-10.4Q274.24-16.55 269.7-19.53L269.7-19.53Q267.01-21.24 263.79-21.24ZM282.39-19.53L285.81-19.53 285.81-20.75 276.34-20.75 276.34-19.53 278.53-19.53 284.49-3.17Q285.47-0.44 286.64 0L286.64 0Q287.23 0.24 288.1 0.24L288.1 0.24 288.74 0.24 295.62-17.82Q296.21-19.34 297.04-19.48L297.04-19.48Q297.28-19.53 297.48-19.53L297.48-19.53Q298.55-19.53 298.65-20.26L298.65-20.26Q298.7-20.51 298.7-20.75L298.7-20.75 291.18-20.75 291.18-19.53 294.84-19.53 288.64-2.88 282.39-19.53ZM311-20.02L311-20.02Q314.42-20.02 315.54-17.14L315.54-17.14Q315.93-16.21 315.93-15.14L315.93-15.14Q315.93-12.7 313.59-12.16L313.59-12.16Q312.37-11.91 310.12-11.96L310.12-11.96 304.95-12.11Q305.19-17.72 308.61-19.43L308.61-19.43Q309.73-20.02 311-20.02ZM319.5-4.69L319.5-4.69 318.28-5.13Q316.57-1.42 312.76-0.93L312.76-0.93Q312.27-0.88 311.83-0.88L311.83-0.88Q306.71-0.88 305.39-6.98L305.39-6.98Q305-8.69 304.95-10.74L304.95-10.74 310.81-10.64Q316.76-10.55 318.47-11.77L318.47-11.77Q319.79-12.74 319.79-14.55L319.79-14.55Q319.79-17.87 316.42-19.82L316.42-19.82Q314.03-21.24 310.91-21.24L310.91-21.24Q304.8-21.24 302.16-16.16L302.16-16.16Q300.8-13.53 300.8-10.21L300.8-10.21Q300.8-4.15 305.14-1.22L305.14-1.22Q307.73 0.49 311.05 0.49L311.05 0.49Q316.32 0.49 318.82-3.32L318.82-3.32Q319.21-4 319.5-4.69ZM337.32-19.53L340.98-19.53 340.98-20.75 331.31-20.75 331.31-19.53 333.51-19.53 339.61-3.17Q340.64-0.39 341.71 0.05L341.71 0.05Q342.25 0.24 343.03 0.24L343.03 0.24 344.01 0.24 348.25-12.55 351.53-3.17Q352.45-0.44 353.43 0.05L353.43 0.05Q353.92 0.24 354.75 0.24L354.75 0.24 355.53 0.24 361.44-17.77Q361.93-19.29 362.61-19.48L362.61-19.48Q362.85-19.53 363.15-19.53L363.15-19.53Q364.22-19.53 364.37-20.21L364.37-20.21Q364.42-20.46 364.42-20.75L364.42-20.75 357.19-20.75 357.19-19.53 360.61-19.53 355.19-2.69 349.47-19.53 352.89-19.53 352.89-20.75 345.37-20.75 347.57-14.55 343.52-2.54 337.32-19.53ZM375.89-1.22L375.89-1.22 373.45-1.22 373.45-20.75 365.88-20.75 365.88-19.53 369.78-19.53 369.78-4.15Q369.78-1.9 368.27-1.42L368.27-1.42Q367.54-1.22 365.88-1.22L365.88-1.22 365.88 0 377.11 0Q377.11-1.07 376.38-1.17L376.38-1.17Q376.13-1.22 375.89-1.22ZM374.03-27.88L374.03-27.88Q374.03-29.59 372.52-30.32L372.52-30.32Q371.93-30.57 371.4-30.57L371.4-30.57Q369.69-30.57 368.95-29L368.95-29Q368.71-28.47 368.71-27.88L368.71-27.88Q368.71-26.07 370.32-25.39L370.32-25.39Q370.86-25.2 371.4-25.2L371.4-25.2Q373.1-25.2 373.79-26.76L373.79-26.76Q374.03-27.29 374.03-27.88ZM379.55-20.75L379.55-19.53 382.97-19.53 382.97-5.76Q383.31 0.34 388.58 0.54L388.58 0.54Q393.07 0.54 394.2-4.98L394.2-4.98Q394.2-5.03 394.2-5.08L394.2-5.08 392.88-5.32Q391.66-1.27 389.31-0.93L389.31-0.93Q386.68-1.03 386.63-4.69L386.63-4.69 386.63-19.53 394.2-19.53 394.2-20.75 386.63-20.75 386.63-26.42 382.97-25.39 382.97-20.75 379.55-20.75ZM405.77-1.22L405.77-1.22 403.32-1.22 403.32-11.77Q403.32-16.21 406.4-18.21L406.4-18.21Q407.67-19.04 409.04-19.04L409.04-19.04Q412.02-19.04 413.19-16.26L413.19-16.26Q413.72-14.94 413.72-13.33L413.72-13.33 413.72-4.15Q413.72-1.9 412.65-1.46L412.65-1.46Q411.97-1.22 410.31-1.22L410.31-1.22 410.31 0 421.05 0Q421.05-1.07 420.32-1.17L420.32-1.17Q420.12-1.22 419.83-1.22L419.83-1.22 417.39-1.22 417.39-13.33Q417.39-18.65 413.87-20.56L413.87-20.56Q412.5-21.24 410.94-21.24L410.94-21.24Q407.33-21.24 404.89-18.6L404.89-18.6Q403.86-17.48 403.32-16.06L403.32-16.06 403.32-31.74 396-31.74 396-30.52 399.66-30.52 399.66-4.15Q399.66-1.9 398.39-1.46L398.39-1.46Q397.66-1.22 396-1.22L396-1.22 396 0 406.99 0Q406.99-1.07 406.25-1.17L406.25-1.17Q406.06-1.22 405.77-1.22ZM449.27-29.79L449.27-29.79Q443.36-29.79 439.16-25.88L439.16-25.88Q434.62-21.63 434.62-14.7L434.62-14.7Q434.62-7.08 439.94-2.73L439.94-2.73Q443.94 0.49 449.12 0.49L449.12 0.49Q451.02 0.49 453.08-0.05L453.08-0.05Q455.32 3.76 456.35 4.83L456.35 4.83Q458.25 6.79 460.4 6.84L460.4 6.84Q464.35 6.74 466.84 1.17L466.84 1.17 465.82 0.59Q463.23 3.61 460.99 3.66L460.99 3.66Q458.98 3.66 456.49 0.59L456.49 0.59Q456.15 0.15 455.37-0.88L455.37-0.88Q460.84-3.42 462.79-9.23L462.79-9.23Q463.67-11.82 463.67-14.79L463.67-14.79Q463.67-22.61 458.2-26.81L458.2-26.81Q454.3-29.79 449.27-29.79ZM448.53-5.81L448.53-5.81Q445.75-5.76 443.6-2.69L443.6-2.69Q439.5-6.01 439.5-14.7L439.5-14.7Q439.5-26.46 446.83-28.17L446.83-28.17Q448-28.42 449.22-28.42L449.22-28.42Q457.08-28.42 458.49-19.19L458.49-19.19Q458.79-17.19 458.79-14.89L458.79-14.89Q458.74-5.52 454.2-2.34L454.2-2.34Q451.32-5.76 448.53-5.81ZM449.12-0.88L449.12-0.88Q446.63-0.88 444.73-1.9L444.73-1.9Q446.58-4.05 448.39-4.1L448.39-4.1Q450.34-4.05 452.2-1.37L452.2-1.37Q450.83-0.88 449.12-0.88ZM491.5-1.22L491.5-1.22 489.06-1.22 489.06-20.75 481.39-20.75 481.39-19.53 485.4-19.53 485.4-8.98Q485.4-4.59 482.32-2.54L482.32-2.54Q480.95-1.61 479.49-1.61L479.49-1.61Q475.48-1.61 474.85-5.71L474.85-5.71Q474.75-6.4 474.75-7.18L474.75-7.18 474.75-20.75 467.33-20.75 467.33-19.53 471.09-19.53 471.09-7.91Q471.14 0.44 478.07 0.49L478.07 0.49Q481.73 0.49 484.08-2.49L484.08-2.49Q484.96-3.61 485.49-4.98L485.49-4.98 485.84 0 492.72 0Q492.72-1.07 491.99-1.17L491.99-1.17Q491.79-1.22 491.5-1.22ZM500.14-10.4L500.14-10.4Q500.14-17.97 504.29-19.63L504.29-19.63Q505.36-20.02 506.54-20.02L506.54-20.02Q511.96-20.02 512.84-13.18L512.84-13.18Q512.98-12.01 512.98-10.6L512.98-10.6Q512.98-2.39 508.49-0.98L508.49-0.98Q507.61-0.73 506.68-0.73L506.68-0.73Q501.75-0.73 500.48-6.59L500.48-6.59Q500.14-8.3 500.14-10.4ZM506.68-21.24L506.68-21.24Q502-21.24 498.87-18.02L498.87-18.02Q495.99-15.04 495.99-10.6L495.99-10.6Q495.99-4.44 500.48-1.37L500.48-1.37Q503.22 0.49 506.54 0.49L506.54 0.49Q511.22 0.49 514.3-2.83L514.3-2.83Q517.13-5.86 517.13-10.4L517.13-10.4Q517.13-16.55 512.59-19.53L512.59-19.53Q509.91-21.24 506.68-21.24ZM520.06-20.75L520.06-19.53 523.48-19.53 523.48-5.76Q523.82 0.34 529.09 0.54L529.09 0.54Q533.59 0.54 534.71-4.98L534.71-4.98Q534.71-5.03 534.71-5.08L534.71-5.08 533.39-5.32Q532.17-1.27 529.83-0.93L529.83-0.93Q527.19-1.03 527.14-4.69L527.14-4.69 527.14-19.53 534.71-19.53 534.71-20.75 527.14-20.75 527.14-26.42 523.48-25.39 523.48-20.75 520.06-20.75ZM547.11-20.02L547.11-20.02Q550.53-20.02 551.65-17.14L551.65-17.14Q552.04-16.21 552.04-15.14L552.04-15.14Q552.04-12.7 549.7-12.16L549.7-12.16Q548.48-11.91 546.23-11.96L546.23-11.96 541.05-12.11Q541.3-17.72 544.72-19.43L544.72-19.43Q545.84-20.02 547.11-20.02ZM555.6-4.69L555.6-4.69 554.38-5.13Q552.67-1.42 548.87-0.93L548.87-0.93Q548.38-0.88 547.94-0.88L547.94-0.88Q542.81-0.88 541.49-6.98L541.49-6.98Q541.1-8.69 541.05-10.74L541.05-10.74 546.91-10.64Q552.87-10.55 554.58-11.77L554.58-11.77Q555.9-12.74 555.9-14.55L555.9-14.55Q555.9-17.87 552.53-19.82L552.53-19.82Q550.14-21.24 547.01-21.24L547.01-21.24Q540.91-21.24 538.27-16.16L538.27-16.16Q536.9-13.53 536.9-10.21L536.9-10.21Q536.9-4.15 541.25-1.22L541.25-1.22Q543.84 0.49 547.16 0.49L547.16 0.49Q552.43 0.49 554.92-3.32L554.92-3.32Q555.31-4 555.6-4.69ZM566.88-0.83L566.88-0.83Q570.25-0.83 571.42-2.88L571.42-2.88Q571.86-3.61 571.86-4.49L571.86-4.49Q571.86-6.54 568.88-8.01L568.88-8.01Q568.25-8.35 566.78-8.98L566.78-8.98Q562.78-10.64 561.46-12.11L561.46-12.11Q560.04-13.72 560.04-15.87L560.04-15.87Q560.04-19.24 563.76-20.61L563.76-20.61Q565.46-21.24 567.47-21.24L567.47-21.24Q570.69-21.24 573.03-19.87L573.03-19.87Q573.03-21.29 573.72-21.48L573.72-21.48Q574.01-21.53 574.35-21.53L574.35-21.53 574.35-15.43 573.08-15.43Q572.98-19.92 568.1-19.97L568.1-19.97Q564.44-19.97 563.56-17.82L563.56-17.82Q563.32-17.24 563.32-16.6L563.32-16.6Q563.32-14.5 566.34-13.04L566.34-13.04Q567.03-12.7 568.49-12.11L568.49-12.11Q572.45-10.5 573.77-9.03L573.77-9.03Q575.18-7.47 575.18-5.32L575.18-5.32Q575.18-1.37 570.98-0.05L570.98-0.05Q569.37 0.49 567.47 0.49L567.47 0.49Q563.95 0.44 561.36-1.27L561.36-1.27Q561.36 0 560.73 0.2L560.73 0.2Q560.44 0.24 560.04 0.24L560.04 0.24 560.04-7.18 561.41-7.18Q561.51-0.88 566.88-0.83Z" opacity="1" transform="matrix(1,0,0,1,0,0)" fill="#ffffff" class="slogan-text-1" data-fill-palette-color="secondary" id="text-1"></path></svg></g></svg></g></svg></g></svg></g><g><svg viewBox="0 0 201.30418180116678 94.04146866256811" height="94.04146866256811" width="201.30418180116678"><g><svg xmlns="http://www.w3.org/2000/svg" xmlns:xlink="http://www.w3.org/1999/xlink" version="1.1" x="0" y="0" viewBox="9.948 31.571999992326894 80.04300307747752 37.392971662175455" enable-background="new 0 0 100 100" xml:space="preserve" height="94.04146866256811" width="201.30418180116678" class="icon-icon-0" data-fill-palette-color="accent" id="icon-0"><g fill="#13472e" data-fill-palette-color="accent"><path fill="#ffffff" d="M84.999 57.509A14.8 14.8 0 0 0 89.991 46.416C89.991 43.162 88.957 40.073 87.002 37.482A14.96 14.96 0 0 0 79.432 32.201 14.9 14.9 0 0 0 75.148 31.572C71.292 31.572 67.638 33.044 64.86 35.717A14.77 14.77 0 0 0 60.319 45.793C60.31 46.019 60.305 46.222 60.305 46.415 60.305 50.823 62.237 54.787 65.298 57.508 65.315 58.458 65.295 62.66 63.784 65.91A0.494 0.494 0 0 0 64.233 66.612H69.081A11 11 0 0 1 68.622 68.262 0.495 0.495 0 0 0 69.084 68.931C69.284 68.931 69.472 68.809 69.546 68.611 70.544 65.965 70.521 62.114 70.459 60.499 71.934 60.991 73.51 61.259 75.148 61.259A14.8 14.8 0 0 0 79.836 60.5C79.774 62.116 79.751 65.967 80.749 68.612A0.495 0.495 0 1 0 81.673 68.263 11 11 0 0 1 81.214 66.613H86.064A0.495 0.495 0 0 0 86.513 65.911C85.002 62.661 84.983 58.459 84.999 57.509M75.148 32.561C76.282 32.561 77.406 32.7 78.499 32.972 76.764 35.449 73.607 38.327 69.9 40.788 66.984 42.724 63.98 44.245 61.354 45.123A13.814 13.814 0 0 1 75.148 32.561M69.249 65.626H64.981C66.05 62.918 66.257 59.88 66.286 58.317A14.8 14.8 0 0 0 69.451 60.122C69.493 60.947 69.573 63.338 69.249 65.626M61.293 46.416L61.295 46.183C64.09 45.299 67.323 43.685 70.446 41.611 74.385 38.995 77.736 35.9 79.5 33.259 85.114 35.117 89.003 40.474 89.003 46.416 89.003 54.056 82.788 60.271 75.148 60.271S61.293 54.056 61.293 46.416M81.047 65.626C80.724 63.338 80.803 60.947 80.845 60.123A15 15 0 0 0 84.011 58.317C84.04 59.88 84.247 62.919 85.316 65.626z" data-fill-palette-color="accent"></path><path fill="#ffffff" d="M73.835 45.588A2.513 2.513 0 0 0 71.324 43.077 2.513 2.513 0 0 0 68.813 45.588 2.513 2.513 0 0 0 71.324 48.099 2.514 2.514 0 0 0 73.835 45.588M71.324 47.111C70.484 47.111 69.801 46.428 69.801 45.588S70.484 44.065 71.324 44.065 72.847 44.748 72.847 45.588 72.163 47.111 71.324 47.111" data-fill-palette-color="accent"></path><path fill="#ffffff" d="M78.973 43.077A2.513 2.513 0 0 0 76.462 45.588 2.513 2.513 0 0 0 78.973 48.099 2.513 2.513 0 0 0 81.484 45.588 2.514 2.514 0 0 0 78.973 43.077M78.973 47.111C78.133 47.111 77.45 46.428 77.45 45.588S78.133 44.065 78.973 44.065 80.496 44.748 80.496 45.588 79.813 47.111 78.973 47.111" data-fill-palette-color="accent"></path><path fill="#ffffff" d="M76.914 51.77C75.183 52.98 73.455 51.819 73.382 51.769A0.495 0.495 0 0 0 72.817 52.58 4.55 4.55 0 0 0 75.225 53.311C75.916 53.311 76.695 53.128 77.48 52.58A0.494 0.494 0 1 0 76.914 51.77" data-fill-palette-color="accent"></path><path fill="#ffffff" d="M39.627 46.422C39.627 43.169 38.594 40.08 36.639 37.491A14.95 14.95 0 0 0 29.071 32.212 14.9 14.9 0 0 0 24.788 31.583 14.77 14.77 0 0 0 14.502 35.727 14.77 14.77 0 0 0 9.962 45.801C9.953 46.027 9.948 46.23 9.948 46.423 9.948 50.83 11.879 54.793 14.939 57.513 14.956 58.462 14.939 62.658 13.426 65.913A0.494 0.494 0 0 0 13.875 66.615H18.722A11 11 0 0 1 18.263 68.264 0.495 0.495 0 0 0 18.725 68.933C18.925 68.933 19.113 68.811 19.187 68.613 20.184 65.968 20.162 62.118 20.1 60.503A14.8 14.8 0 0 0 24.788 61.262C26.425 61.262 28.001 60.995 29.475 60.503 29.413 62.118 29.39 65.968 30.388 68.613A0.495 0.495 0 1 0 31.312 68.264 11 11 0 0 1 30.853 66.615H35.701A0.495 0.495 0 0 0 36.15 65.913C34.639 62.663 34.62 58.463 34.637 57.513 37.696 54.792 39.627 50.829 39.627 46.422M24.788 32.571C25.922 32.571 27.045 32.71 28.137 32.982 26.402 35.459 23.246 38.335 19.541 40.795 16.626 42.731 13.622 44.251 10.997 45.129A13.81 13.81 0 0 1 24.788 32.571M18.891 65.627H14.624C15.692 62.92 15.9 59.883 15.929 58.32 16.899 59.044 17.961 59.652 19.093 60.125 19.135 60.949 19.214 63.339 18.891 65.627M10.937 46.422L10.939 46.189C13.733 45.305 16.966 43.691 20.087 41.618 24.025 39.003 27.375 35.909 29.138 33.269 34.75 35.126 38.638 40.482 38.638 46.422 38.638 54.06 32.424 60.273 24.787 60.273S10.937 54.06 10.937 46.422M34.952 65.627H30.684C30.361 63.34 30.44 60.95 30.482 60.125A15 15 0 0 0 33.647 58.32C33.677 59.883 33.884 62.92 34.952 65.627" data-fill-palette-color="accent"></path><path fill="#ffffff" d="M23.475 45.595A2.514 2.514 0 0 0 20.964 43.084 2.514 2.514 0 0 0 18.453 45.595 2.514 2.514 0 0 0 20.964 48.106 2.515 2.515 0 0 0 23.475 45.595M20.964 47.117A1.524 1.524 0 0 1 19.442 45.595C19.442 44.756 20.125 44.073 20.964 44.073S22.486 44.756 22.486 45.595A1.523 1.523 0 0 1 20.964 47.117" data-fill-palette-color="accent"></path><path fill="#ffffff" d="M28.612 43.084A2.514 2.514 0 0 0 26.101 45.595 2.514 2.514 0 0 0 28.612 48.106 2.514 2.514 0 0 0 31.123 45.595 2.515 2.515 0 0 0 28.612 43.084M28.612 47.117A1.524 1.524 0 0 1 27.09 45.595C27.09 44.756 27.773 44.073 28.612 44.073S30.134 44.756 30.134 45.595 29.451 47.117 28.612 47.117" data-fill-palette-color="accent"></path><path fill="#ffffff" d="M26.553 51.774C24.824 52.982 23.098 51.825 23.022 51.773A0.495 0.495 0 0 0 22.457 52.584 4.55 4.55 0 0 0 24.865 53.315C25.556 53.315 26.335 53.132 27.119 52.584A0.494 0.494 0 1 0 26.553 51.774" data-fill-palette-color="accent"></path><path fill="#ffffff" d="M53.459 34.625A5.3 5.3 0 0 0 50.019 35.878 5.3 5.3 0 0 0 46.579 34.625 5.32 5.32 0 0 0 42.809 36.181 5.25 5.25 0 0 0 41.24 39.914C41.238 41.381 41.846 42.799 42.953 43.906L49.669 50.624A0.49 0.49 0 0 0 50.367 50.624L52.003 48.987 57.083 43.906C58.19 42.799 58.799 41.381 58.796 39.914A5.25 5.25 0 0 0 57.227 36.181 5.3 5.3 0 0 0 53.459 34.625M56.386 43.206L51.306 48.288 50.02 49.575 43.653 43.207C42.733 42.287 42.227 41.118 42.229 39.915A4.26 4.26 0 0 1 43.507 36.882 4.33 4.33 0 0 1 46.58 35.614C47.748 35.614 48.846 36.07 49.67 36.899A0.496 0.496 0 0 0 50.37 36.899 4.33 4.33 0 0 1 53.46 35.614C54.62 35.614 55.711 36.064 56.533 36.882A4.26 4.26 0 0 1 57.811 39.916C57.812 41.117 57.306 42.286 56.386 43.206" data-fill-palette-color="accent"></path></g></svg></g></svg></g></svg></g><defs></defs></svg><rect width="395.52" height="61.313388741151115" fill="none" stroke="none" visibility="hidden"></rect></g></svg></g></svg>